<?xml version="1.0" encoding="UTF-8"?>
<svg width="216px" height="206px" viewBox="0 0 216 206" version="1.1" xmlns="http://www.w3.org/2000/svg" xmlns:xlink="http://www.w3.org/1999/xlink">
    <!-- Generator: Sketch 63.1 (92452) - https://sketch.com -->
    <title>Group 18</title>
    <desc>Created with Sketch.</desc>
    <g id="Web" stroke="none" stroke-width="1" fill="none" fill-rule="evenodd">
        <g id="Group-18" transform="translate(0.000000, -0.121460)">
            <path d="M0.000295645399,1.95399252e-14 C3.93067925,9.79940918 6.72925925,20.4902322 8.39603564,32.0724692 C11.2782885,79.2986025 49.5315072,113.978869 123.155692,136.113269 C174.384069,151.514586 205.072867,174.766884 215.222084,205.870164 L10,205.87146 C4.4771525,205.87146 5.75197726e-14,201.394307 5.68434189e-14,195.87146 Z" id="Combined-Shape" fill="#FEF8F2"></path>
            <path d="M0.0016845835,44.6061265 C9.42290793,59.1705333 15.5543583,76.3259808 18.3960356,96.0724692 C21.2782885,143.298602 59.5315072,177.978869 133.155692,200.113269 C139.178615,201.924003 144.917626,203.843259 150.372724,205.871036 L10,205.87146 C4.4771525,205.87146 -7.03779198e-14,201.394307 -7.10542736e-14,195.87146 Z" id="Combined-Shape" fill="#FDEFE0"></path>
        </g>
    </g>
</svg>